<?xml version="1.0" encoding="UTF-8" standalone="no"?>
<svg width="101px" height="64px" viewBox="0 0 101 64" version="1.1" xmlns="http://www.w3.org/2000/svg" xmlns:xlink="http://www.w3.org/1999/xlink" xmlns:sketch="http://www.bohemiancoding.com/sketch/ns">
    <!-- Generator: Sketch 3.2.2 (9983) - http://www.bohemiancoding.com/sketch -->
    <title>noun_3754_cc (1)</title>
    <desc>Created with Sketch.</desc>
    <defs></defs>
    <g id="Page-1" stroke="none" stroke-width="1" fill="none" fill-rule="evenodd" sketch:type="MSPage">
        <g id="noun_3754_cc-(1)" sketch:type="MSLayerGroup" transform="translate(0.000000, -1.000000)" fill="#000000">
            <path d="M28.637,32.44 L100.825,32.44 L100.825,15.937 C100.825,12.699 98.175,10.048 94.935,10.048 L22.869,10.048 C19.631,10.048 15.357,12.143 13.372,14.703 L7.464,22.329 C5.481,24.889 3.175,28.281 2.34,29.866 C1.507,31.45 0.824,35.397 0.824,38.636 L0.824,46.358 C1.483,44.629 2.439,42.857 3.822,41.184 C8.621,35.381 16.969,32.44 28.637,32.44 L28.637,32.44 Z M64.697,15.77 C64.697,14.797 65.493,14.003 66.465,14.003 L78.203,14.003 C79.174,14.003 79.969,14.797 79.969,15.77 L79.969,27.505 C79.969,28.477 79.174,29.272 78.203,29.272 L66.465,29.272 C65.493,29.272 64.697,28.477 64.697,27.505 L64.697,15.77 L64.697,15.77 Z M47.622,15.77 C47.622,14.797 48.418,14.003 49.39,14.003 L61.127,14.003 C62.1,14.003 62.895,14.797 62.895,15.77 L62.895,27.505 C62.895,28.477 62.1,29.272 61.127,29.272 L49.39,29.272 C48.418,29.272 47.622,28.477 47.622,27.505 L47.622,15.77 L47.622,15.77 Z M30.444,15.77 C30.444,14.797 31.239,14.003 32.212,14.003 L43.95,14.003 C44.922,14.003 45.716,14.797 45.716,15.77 L45.716,27.505 C45.716,28.477 44.922,29.272 43.95,29.272 L32.212,29.272 C31.239,29.272 30.444,28.477 30.444,27.505 L30.444,15.77 L30.444,15.77 Z M6.763,27.75 L16.563,15.386 C17.167,14.624 18.456,14.002 19.427,14.002 L26.117,14.002 C27.09,14.002 27.885,14.796 27.885,15.769 L27.885,27.367 C27.885,28.34 27.09,29.135 26.117,29.135 L7.432,29.135 C6.46,29.135 6.16,28.512 6.763,27.75 L6.763,27.75 Z" id="Shape" sketch:type="MSShapeGroup"></path>
            <path d="M4.452,41.705 C2.465,44.107 1.393,46.726 0.832,49.098 C0.915,52.266 3.527,54.832 6.714,54.832 L10.641,54.832 C10.641,48.17 16.042,42.768 22.706,42.768 C29.369,42.768 34.77,48.17 34.77,54.832 L69.536,54.832 C69.536,48.17 74.938,42.768 81.601,42.768 C88.263,42.768 93.666,48.17 93.666,54.832 L94.934,54.832 C98.173,54.832 100.824,52.183 100.824,48.942 L100.824,33.259 L28.637,33.259 C17.225,33.259 9.088,36.1 4.452,41.705 L4.452,41.705 Z M6.959,50.268 C5.228,50.268 3.824,48.864 3.824,47.132 C3.824,45.399 5.227,43.994 6.959,43.994 C8.691,43.994 10.095,45.398 10.095,47.132 C10.095,48.863 8.69,50.268 6.959,50.268 L6.959,50.268 Z" id="Shape" sketch:type="MSShapeGroup"></path>
            <path d="M81.602,45.565 C76.484,45.565 72.334,49.713 72.334,54.832 C72.334,59.951 76.483,64.1 81.602,64.1 C86.721,64.1 90.87,59.952 90.87,54.832 C90.869,49.714 86.72,45.565 81.602,45.565 L81.602,45.565 Z M81.602,60.762 C78.327,60.762 75.671,58.108 75.671,54.832 C75.671,51.556 78.326,48.903 81.602,48.903 C84.878,48.903 87.532,51.556 87.532,54.832 C87.532,58.108 84.877,60.762 81.602,60.762 L81.602,60.762 Z" id="Shape" sketch:type="MSShapeGroup"></path>
            <path d="M22.706,45.565 C17.587,45.565 13.438,49.713 13.438,54.832 C13.438,59.951 17.586,64.1 22.706,64.1 C27.824,64.1 31.973,59.952 31.973,54.832 C31.973,49.714 27.824,45.565 22.706,45.565 L22.706,45.565 Z M22.706,60.762 C19.43,60.762 16.774,58.108 16.774,54.832 C16.774,51.556 19.429,48.903 22.706,48.903 C25.981,48.903 28.637,51.556 28.637,54.832 C28.637,58.108 25.981,60.762 22.706,60.762 L22.706,60.762 Z" id="Shape" sketch:type="MSShapeGroup"></path>
            <path d="M89.1,5.549 L85.388,5.549 L85.388,3.034 C85.388,2.588 85.138,2.488 84.831,2.813 L83.346,4.39 L83.346,1.579 C83.346,0.932 82.983,0.787 82.538,1.258 L78.632,5.406 C78.586,5.455 78.55,5.502 78.517,5.549 L35.386,5.549 C34.708,5.549 34.158,6.099 34.158,6.776 C34.158,7.454 34.708,8.004 35.386,8.004 L89.1,8.004 C89.778,8.004 90.327,7.454 90.327,6.776 C90.326,6.099 89.777,5.549 89.1,5.549 L89.1,5.549 Z" id="Shape" sketch:type="MSShapeGroup"></path>
        </g>
    </g>
</svg>